<?xml version="1.0" encoding="iso-8859-1"?>
<!-- Generator: Adobe Illustrator 16.0.0, SVG Export Plug-In . SVG Version: 6.00 Build 0)  -->
<!DOCTYPE svg PUBLIC "-//W3C//DTD SVG 1.1//EN" "http://www.w3.org/Graphics/SVG/1.1/DTD/svg11.dtd">
<svg version="1.1" id="Capa_1" xmlns="http://www.w3.org/2000/svg" xmlns:xlink="http://www.w3.org/1999/xlink" x="0px" y="0px"
	 width="57.902px" height="32.197px" viewBox="0 0 57.902 32.197" style="enable-background:new 0 0 57.902 32.197;"
	 xml:space="preserve">
<g>
	<path d="M22.776,3.74l-3.2,9.311c0,0-11.722,0.043-14.512,0.043c-2.791,0-2.738,1.579-2.738,1.579v7.022
		c0,0.028,0.004,0.056,0.005,0.082H0v5.902h6.731c-0.077-0.418-0.125-0.848-0.125-1.287c0-3.822,3.099-6.921,6.92-6.921
		c3.822,0,6.921,3.099,6.921,6.921c0,0.439-0.045,0.869-0.125,1.287h16.083c-0.076-0.418-0.123-0.848-0.123-1.287
		c0-3.822,3.101-6.921,6.92-6.921c3.822,0,6.92,3.099,6.92,6.921c0,0.45-0.045,0.893-0.129,1.32l4.617,0.052l-7.73-24.025
		L22.776,3.74L22.776,3.74z M30.795,13.135h-7.48l1.996-7.481h5.484V13.135z M42.435,13.301h-9.81V5.653h9.81V13.301z
		 M43.717,13.203V5.724h2.297l1.516,7.479H43.717z"/>
	<path d="M13.686,21.276c-3.017,0-5.46,2.444-5.46,5.46c0,3.018,2.444,5.461,5.46,5.461s5.46-2.443,5.46-5.461
		C19.146,23.721,16.702,21.276,13.686,21.276z M13.686,29.205c-1.362,0-2.469-1.106-2.469-2.47c0-1.359,1.106-2.469,2.469-2.469
		c1.361,0,2.467,1.108,2.467,2.469C16.153,28.099,15.047,29.205,13.686,29.205z"/>
	<path d="M43.111,21.276c-3.014,0-5.461,2.444-5.461,5.46c0,3.018,2.447,5.461,5.461,5.461c3.017,0,5.462-2.443,5.462-5.461
		C48.573,23.721,46.125,21.276,43.111,21.276z M43.111,29.205c-1.36,0-2.468-1.106-2.468-2.47c0-1.359,1.105-2.469,2.468-2.469
		s2.47,1.108,2.47,2.469C45.581,28.099,44.473,29.205,43.111,29.205z"/>
	<path d="M57.766,19.265L54.045,9.24c-0.412-1.119-1.658-1.688-2.774-1.273c-1.12,0.415-1.688,1.659-1.274,2.777l3.719,10.023
		c0.414,1.12,1.658,1.688,2.777,1.273C57.612,21.627,58.182,20.385,57.766,19.265z"/>
	<path d="M26.407,2.213h18.108c0.612,0,1.106-0.496,1.106-1.105C45.622,0.494,45.127,0,44.515,0H26.407
		C25.795,0,25.3,0.494,25.3,1.107C25.299,1.718,25.795,2.213,26.407,2.213z"/>
</g>
<g>
</g>
<g>
</g>
<g>
</g>
<g>
</g>
<g>
</g>
<g>
</g>
<g>
</g>
<g>
</g>
<g>
</g>
<g>
</g>
<g>
</g>
<g>
</g>
<g>
</g>
<g>
</g>
<g>
</g>
</svg>
