<?xml version="1.0" encoding="iso-8859-1"?>
<!-- Generator: Adobe Illustrator 18.0.0, SVG Export Plug-In . SVG Version: 6.00 Build 0)  -->
<!DOCTYPE svg PUBLIC "-//W3C//DTD SVG 1.1//EN" "http://www.w3.org/Graphics/SVG/1.1/DTD/svg11.dtd">
<svg version="1.1" id="Capa_1" xmlns="http://www.w3.org/2000/svg" xmlns:xlink="http://www.w3.org/1999/xlink" x="0px" y="0px"
	 viewBox="0 0 21.451 23.329" style="enable-background:new 0 0 21.451 23.329;" xml:space="preserve">
<path d="M10.637,5.802L3.263,3.875L3.152,3.989c-0.721,0.74-1.247,1.684-1.521,2.733C0.938,9.376,2.04,12.019,4.12,12.964
	l-1.712,6.552c-1.319-0.288-2.344-0.344-2.405-0.107c-0.073,0.277,1.195,0.848,2.83,1.275c1.637,0.428,3.021,0.55,3.094,0.272
	c0.062-0.236-0.857-0.689-2.149-1.083l1.715-6.56c2.26,0.165,4.488-1.594,5.176-4.23c0.274-1.049,0.278-2.131,0.01-3.128
	L10.637,5.802z M6.864,11.481c0,0,2.448-1.051,2.308-2.053L9.85,9.605C9.85,9.605,9.577,11.386,6.864,11.481z M5.504,6.522
	C4.21,5.169,3.292,5.163,2.813,5.318C2.996,5.02,3.204,4.74,3.435,4.487l6.752,1.764c0.117,0.495,0.158,1.01,0.13,1.53
	C10.27,7.794,7.455,8.564,5.504,6.522z"/>
<path d="M19.041,21.825l-1.523-6.607c2.08-0.903,3.237-3.494,2.625-6.148c-0.244-1.057-0.742-2.017-1.442-2.775l-0.108-0.117
	L11.166,7.89l-0.045,0.152c-0.297,0.99-0.325,2.071-0.081,3.127c0.616,2.673,2.818,4.503,5.1,4.376l1.522,6.599
	c-1.303,0.355-2.236,0.781-2.18,1.02c0.063,0.279,1.452,0.197,3.099-0.182c1.649-0.38,2.931-0.915,2.867-1.194
	C21.394,21.549,20.37,21.575,19.041,21.825z M17.885,12.958c0,0,1.681-2.066,1.092-2.889l0.683-0.157
	C19.66,9.911,20.243,11.615,17.885,12.958z M14.38,9.195c-1.774-0.599-2.59-0.178-2.942,0.181c0.023-0.349,0.078-0.692,0.166-1.024
	l6.8-1.568c0.333,0.384,0.609,0.821,0.825,1.296C19.193,8.111,17.055,10.099,14.38,9.195z"/>
<circle cx="15.078" cy="6.075" r="0.747"/>
<circle cx="16.812" cy="2.783" r="0.649"/>
<circle cx="15.456" cy="0.378" r="0.378"/>
<circle cx="13.875" cy="0.249" r="0.249"/>
<circle cx="9.276" cy="0.714" r="0.714"/>
<path d="M3.279,1.607c0.113,0.058,0.212,0.108,0.323,0.16c0.111,0.051,0.225,0.128,0.315,0.235c0.091,0.105,0.171,0.231,0.24,0.367
	C4.229,2.504,4.29,2.652,4.339,2.805C4.448,3.11,4.511,3.44,4.554,3.774L4.633,3.78C4.717,3.441,4.74,3.092,4.729,2.733
	c-0.021-0.357-0.092-0.728-0.283-1.08c-0.095-0.174-0.21-0.354-0.365-0.507C3.924,0.993,3.718,0.886,3.506,0.85
	C3.081,0.776,2.674,0.894,2.383,1.172L2.398,1.25C2.767,1.401,3.056,1.487,3.279,1.607z"/>
<path d="M5.16,1.318c0.042,0.038,0.08,0.088,0.104,0.147c0.025,0.06,0.042,0.126,0.051,0.195c0.012,0.069,0.017,0.143,0.017,0.216
	C5.334,2.025,5.314,2.178,5.285,2.33l0.033,0.014C5.404,2.208,5.464,2.06,5.511,1.901C5.555,1.743,5.576,1.57,5.543,1.39
	C5.527,1.3,5.504,1.206,5.458,1.116C5.412,1.027,5.337,0.95,5.25,0.904C5.075,0.811,4.881,0.803,4.713,0.883L4.71,0.918
	c0.139,0.119,0.252,0.198,0.333,0.283C5.083,1.243,5.119,1.279,5.16,1.318z"/>
</svg>
